<?xml version="1.0" encoding="utf-8"?>
<svg xmlns="http://www.w3.org/2000/svg" xmlns:xlink="http://www.w3.org/1999/xlink" width="600" height="400" viewBox="0 0 2400 1600">
<defs>
  <clipPath id="clip370">
    <rect x="0" y="0" width="2400" height="1600"/>
  </clipPath>
</defs>
<path clip-path="url(#clip370)" d="M0 1600 L2400 1600 L2400 0 L0 0  Z" fill="#ffffff" fill-rule="evenodd" fill-opacity="1"/>
<defs>
  <clipPath id="clip371">
    <rect x="480" y="0" width="1681" height="1600"/>
  </clipPath>
</defs>
<path clip-path="url(#clip370)" d="M530.515 1486.45 L1969.72 1486.45 L1969.72 47.2441 L530.515 47.2441  Z" fill="#ffffff" fill-rule="evenodd" fill-opacity="1"/>
<defs>
  <clipPath id="clip372">
    <rect x="530" y="47" width="1440" height="1440"/>
  </clipPath>
</defs>
<polyline clip-path="url(#clip372)" style="stroke:#000000; stroke-linecap:round; stroke-linejoin:round; stroke-width:2; stroke-opacity:0.1; fill:none" points="564.782,1486.45 564.782,47.2441 "/>
<polyline clip-path="url(#clip372)" style="stroke:#000000; stroke-linecap:round; stroke-linejoin:round; stroke-width:2; stroke-opacity:0.1; fill:none" points="907.449,1486.45 907.449,47.2441 "/>
<polyline clip-path="url(#clip372)" style="stroke:#000000; stroke-linecap:round; stroke-linejoin:round; stroke-width:2; stroke-opacity:0.1; fill:none" points="1250.12,1486.45 1250.12,47.2441 "/>
<polyline clip-path="url(#clip372)" style="stroke:#000000; stroke-linecap:round; stroke-linejoin:round; stroke-width:2; stroke-opacity:0.1; fill:none" points="1592.78,1486.45 1592.78,47.2441 "/>
<polyline clip-path="url(#clip372)" style="stroke:#000000; stroke-linecap:round; stroke-linejoin:round; stroke-width:2; stroke-opacity:0.1; fill:none" points="1935.45,1486.45 1935.45,47.2441 "/>
<polyline clip-path="url(#clip370)" style="stroke:#000000; stroke-linecap:round; stroke-linejoin:round; stroke-width:4; stroke-opacity:1; fill:none" points="530.515,1486.45 1969.72,1486.45 "/>
<polyline clip-path="url(#clip370)" style="stroke:#000000; stroke-linecap:round; stroke-linejoin:round; stroke-width:4; stroke-opacity:1; fill:none" points="530.515,47.2441 1969.72,47.2441 "/>
<polyline clip-path="url(#clip370)" style="stroke:#000000; stroke-linecap:round; stroke-linejoin:round; stroke-width:4; stroke-opacity:1; fill:none" points="564.782,1486.45 564.782,1467.55 "/>
<polyline clip-path="url(#clip370)" style="stroke:#000000; stroke-linecap:round; stroke-linejoin:round; stroke-width:4; stroke-opacity:1; fill:none" points="907.449,1486.45 907.449,1467.55 "/>
<polyline clip-path="url(#clip370)" style="stroke:#000000; stroke-linecap:round; stroke-linejoin:round; stroke-width:4; stroke-opacity:1; fill:none" points="1250.12,1486.45 1250.12,1467.55 "/>
<polyline clip-path="url(#clip370)" style="stroke:#000000; stroke-linecap:round; stroke-linejoin:round; stroke-width:4; stroke-opacity:1; fill:none" points="1592.78,1486.45 1592.78,1467.55 "/>
<polyline clip-path="url(#clip370)" style="stroke:#000000; stroke-linecap:round; stroke-linejoin:round; stroke-width:4; stroke-opacity:1; fill:none" points="1935.45,1486.45 1935.45,1467.55 "/>
<path clip-path="url(#clip370)" d="M534.724 1532.02 L564.4 1532.02 L564.4 1535.95 L534.724 1535.95 L534.724 1532.02 Z" fill="#000000" fill-rule="evenodd" fill-opacity="1" /><path clip-path="url(#clip370)" d="M578.52 1544.91 L594.839 1544.91 L594.839 1548.85 L572.895 1548.85 L572.895 1544.91 Q575.557 1542.16 580.14 1537.53 Q584.747 1532.88 585.927 1531.53 Q588.173 1529.01 589.052 1527.27 Q589.955 1525.51 589.955 1523.82 Q589.955 1521.07 588.011 1519.33 Q586.09 1517.6 582.988 1517.6 Q580.789 1517.6 578.335 1518.36 Q575.904 1519.13 573.127 1520.68 L573.127 1515.95 Q575.951 1514.82 578.404 1514.24 Q580.858 1513.66 582.895 1513.66 Q588.265 1513.66 591.46 1516.35 Q594.654 1519.03 594.654 1523.52 Q594.654 1525.65 593.844 1527.57 Q593.057 1529.47 590.951 1532.07 Q590.372 1532.74 587.27 1535.95 Q584.168 1539.15 578.52 1544.91 Z" fill="#000000" fill-rule="evenodd" fill-opacity="1" /><path clip-path="url(#clip370)" d="M877.206 1532.02 L906.882 1532.02 L906.882 1535.95 L877.206 1535.95 L877.206 1532.02 Z" fill="#000000" fill-rule="evenodd" fill-opacity="1" /><path clip-path="url(#clip370)" d="M917.785 1544.91 L925.424 1544.91 L925.424 1518.55 L917.114 1520.21 L917.114 1515.95 L925.377 1514.29 L930.053 1514.29 L930.053 1544.91 L937.692 1544.91 L937.692 1548.85 L917.785 1548.85 L917.785 1544.91 Z" fill="#000000" fill-rule="evenodd" fill-opacity="1" /><path clip-path="url(#clip370)" d="M1250.12 1517.37 Q1246.51 1517.37 1244.68 1520.93 Q1242.87 1524.47 1242.87 1531.6 Q1242.87 1538.71 1244.68 1542.27 Q1246.51 1545.82 1250.12 1545.82 Q1253.75 1545.82 1255.56 1542.27 Q1257.39 1538.71 1257.39 1531.6 Q1257.39 1524.47 1255.56 1520.93 Q1253.75 1517.37 1250.12 1517.37 M1250.12 1513.66 Q1255.93 1513.66 1258.98 1518.27 Q1262.06 1522.85 1262.06 1531.6 Q1262.06 1540.33 1258.98 1544.94 Q1255.93 1549.52 1250.12 1549.52 Q1244.31 1549.52 1241.23 1544.94 Q1238.17 1540.33 1238.17 1531.6 Q1238.17 1522.85 1241.23 1518.27 Q1244.31 1513.66 1250.12 1513.66 Z" fill="#000000" fill-rule="evenodd" fill-opacity="1" /><path clip-path="url(#clip370)" d="M1583.17 1544.91 L1590.81 1544.91 L1590.81 1518.55 L1582.5 1520.21 L1582.5 1515.95 L1590.76 1514.29 L1595.43 1514.29 L1595.43 1544.91 L1603.07 1544.91 L1603.07 1548.85 L1583.17 1548.85 L1583.17 1544.91 Z" fill="#000000" fill-rule="evenodd" fill-opacity="1" /><path clip-path="url(#clip370)" d="M1930.1 1544.91 L1946.42 1544.91 L1946.42 1548.85 L1924.48 1548.85 L1924.48 1544.91 Q1927.14 1542.16 1931.73 1537.53 Q1936.33 1532.88 1937.51 1531.53 Q1939.76 1529.01 1940.64 1527.27 Q1941.54 1525.51 1941.54 1523.82 Q1941.54 1521.07 1939.6 1519.33 Q1937.67 1517.6 1934.57 1517.6 Q1932.37 1517.6 1929.92 1518.36 Q1927.49 1519.13 1924.71 1520.68 L1924.71 1515.95 Q1927.54 1514.82 1929.99 1514.24 Q1932.44 1513.66 1934.48 1513.66 Q1939.85 1513.66 1943.04 1516.35 Q1946.24 1519.03 1946.24 1523.52 Q1946.24 1525.65 1945.43 1527.57 Q1944.64 1529.47 1942.54 1532.07 Q1941.96 1532.74 1938.85 1535.95 Q1935.75 1539.15 1930.1 1544.91 Z" fill="#000000" fill-rule="evenodd" fill-opacity="1" /><polyline clip-path="url(#clip372)" style="stroke:#000000; stroke-linecap:round; stroke-linejoin:round; stroke-width:2; stroke-opacity:0.1; fill:none" points="530.515,1452.18 1969.72,1452.18 "/>
<polyline clip-path="url(#clip372)" style="stroke:#000000; stroke-linecap:round; stroke-linejoin:round; stroke-width:2; stroke-opacity:0.1; fill:none" points="530.515,1109.51 1969.72,1109.51 "/>
<polyline clip-path="url(#clip372)" style="stroke:#000000; stroke-linecap:round; stroke-linejoin:round; stroke-width:2; stroke-opacity:0.1; fill:none" points="530.515,766.846 1969.72,766.846 "/>
<polyline clip-path="url(#clip372)" style="stroke:#000000; stroke-linecap:round; stroke-linejoin:round; stroke-width:2; stroke-opacity:0.1; fill:none" points="530.515,424.178 1969.72,424.178 "/>
<polyline clip-path="url(#clip372)" style="stroke:#000000; stroke-linecap:round; stroke-linejoin:round; stroke-width:2; stroke-opacity:0.1; fill:none" points="530.515,81.5109 1969.72,81.5109 "/>
<polyline clip-path="url(#clip370)" style="stroke:#000000; stroke-linecap:round; stroke-linejoin:round; stroke-width:4; stroke-opacity:1; fill:none" points="530.515,1486.45 530.515,47.2441 "/>
<polyline clip-path="url(#clip370)" style="stroke:#000000; stroke-linecap:round; stroke-linejoin:round; stroke-width:4; stroke-opacity:1; fill:none" points="1969.72,1486.45 1969.72,47.2441 "/>
<polyline clip-path="url(#clip370)" style="stroke:#000000; stroke-linecap:round; stroke-linejoin:round; stroke-width:4; stroke-opacity:1; fill:none" points="530.515,1452.18 542.848,1452.18 "/>
<polyline clip-path="url(#clip370)" style="stroke:#000000; stroke-linecap:round; stroke-linejoin:round; stroke-width:4; stroke-opacity:1; fill:none" points="530.515,1109.51 542.848,1109.51 "/>
<polyline clip-path="url(#clip370)" style="stroke:#000000; stroke-linecap:round; stroke-linejoin:round; stroke-width:4; stroke-opacity:1; fill:none" points="530.515,766.846 542.848,766.846 "/>
<polyline clip-path="url(#clip370)" style="stroke:#000000; stroke-linecap:round; stroke-linejoin:round; stroke-width:4; stroke-opacity:1; fill:none" points="530.515,424.178 542.848,424.178 "/>
<polyline clip-path="url(#clip370)" style="stroke:#000000; stroke-linecap:round; stroke-linejoin:round; stroke-width:4; stroke-opacity:1; fill:none" points="530.515,81.5109 542.848,81.5109 "/>
<path clip-path="url(#clip370)" d="M434.4 1452.63 L464.075 1452.63 L464.075 1456.57 L434.4 1456.57 L434.4 1452.63 Z" fill="#000000" fill-rule="evenodd" fill-opacity="1" /><path clip-path="url(#clip370)" d="M478.196 1465.53 L494.515 1465.53 L494.515 1469.46 L472.571 1469.46 L472.571 1465.53 Q475.233 1462.77 479.816 1458.14 Q484.422 1453.49 485.603 1452.15 Q487.848 1449.62 488.728 1447.89 Q489.631 1446.13 489.631 1444.44 Q489.631 1441.68 487.686 1439.95 Q485.765 1438.21 482.663 1438.21 Q480.464 1438.21 478.01 1438.98 Q475.58 1439.74 472.802 1441.29 L472.802 1436.57 Q475.626 1435.43 478.08 1434.85 Q480.534 1434.28 482.571 1434.28 Q487.941 1434.28 491.135 1436.96 Q494.33 1439.65 494.33 1444.14 Q494.33 1446.27 493.52 1448.19 Q492.733 1450.09 490.626 1452.68 Q490.047 1453.35 486.946 1456.57 Q483.844 1459.76 478.196 1465.53 Z" fill="#000000" fill-rule="evenodd" fill-opacity="1" /><path clip-path="url(#clip370)" d="M434.029 1109.96 L463.705 1109.96 L463.705 1113.9 L434.029 1113.9 L434.029 1109.96 Z" fill="#000000" fill-rule="evenodd" fill-opacity="1" /><path clip-path="url(#clip370)" d="M474.608 1122.86 L482.247 1122.86 L482.247 1096.49 L473.936 1098.16 L473.936 1093.9 L482.2 1092.23 L486.876 1092.23 L486.876 1122.86 L494.515 1122.86 L494.515 1126.79 L474.608 1126.79 L474.608 1122.86 Z" fill="#000000" fill-rule="evenodd" fill-opacity="1" /><path clip-path="url(#clip370)" d="M482.571 752.645 Q478.96 752.645 477.131 756.209 Q475.325 759.751 475.325 766.881 Q475.325 773.987 477.131 777.552 Q478.96 781.094 482.571 781.094 Q486.205 781.094 488.01 777.552 Q489.839 773.987 489.839 766.881 Q489.839 759.751 488.01 756.209 Q486.205 752.645 482.571 752.645 M482.571 748.941 Q488.381 748.941 491.436 753.547 Q494.515 758.131 494.515 766.881 Q494.515 775.608 491.436 780.214 Q488.381 784.797 482.571 784.797 Q476.76 784.797 473.682 780.214 Q470.626 775.608 470.626 766.881 Q470.626 758.131 473.682 753.547 Q476.76 748.941 482.571 748.941 Z" fill="#000000" fill-rule="evenodd" fill-opacity="1" /><path clip-path="url(#clip370)" d="M474.608 437.523 L482.247 437.523 L482.247 411.158 L473.936 412.824 L473.936 408.565 L482.2 406.898 L486.876 406.898 L486.876 437.523 L494.515 437.523 L494.515 441.458 L474.608 441.458 L474.608 437.523 Z" fill="#000000" fill-rule="evenodd" fill-opacity="1" /><path clip-path="url(#clip370)" d="M478.196 94.8557 L494.515 94.8557 L494.515 98.7909 L472.571 98.7909 L472.571 94.8557 Q475.233 92.1011 479.816 87.4715 Q484.422 82.8187 485.603 81.4761 Q487.848 78.953 488.728 77.2169 Q489.631 75.4576 489.631 73.7678 Q489.631 71.0132 487.686 69.2771 Q485.765 67.541 482.663 67.541 Q480.464 67.541 478.01 68.3049 Q475.58 69.0688 472.802 70.6197 L472.802 65.8975 Q475.626 64.7633 478.08 64.1846 Q480.534 63.6059 482.571 63.6059 Q487.941 63.6059 491.135 66.291 Q494.33 68.9762 494.33 73.4669 Q494.33 75.5965 493.52 77.5178 Q492.733 79.416 490.626 82.0085 Q490.047 82.6798 486.946 85.8974 Q483.844 89.0918 478.196 94.8557 Z" fill="#000000" fill-rule="evenodd" fill-opacity="1" /><circle clip-path="url(#clip372)" cx="564.782" cy="1109.51" r="21.6" fill="#ff0000" fill-rule="evenodd" fill-opacity="1" stroke="#000000" stroke-opacity="1" stroke-width="3.2"/>
<circle clip-path="url(#clip372)" cx="1592.78" cy="1109.51" r="21.6" fill="#ff0000" fill-rule="evenodd" fill-opacity="1" stroke="#000000" stroke-opacity="1" stroke-width="3.2"/>
<circle clip-path="url(#clip372)" cx="1250.12" cy="766.846" r="21.6" fill="#ff0000" fill-rule="evenodd" fill-opacity="1" stroke="#000000" stroke-opacity="1" stroke-width="3.2"/>
<circle clip-path="url(#clip372)" cx="1250.12" cy="81.5109" r="21.6" fill="#0000ff" fill-rule="evenodd" fill-opacity="1" stroke="#000000" stroke-opacity="1" stroke-width="3.2"/>
<circle clip-path="url(#clip372)" cx="1935.45" cy="424.178" r="21.6" fill="#0000ff" fill-rule="evenodd" fill-opacity="1" stroke="#000000" stroke-opacity="1" stroke-width="3.2"/>
<circle clip-path="url(#clip372)" cx="1250.12" cy="1452.18" r="21.6" fill="#0000ff" fill-rule="evenodd" fill-opacity="1" stroke="#000000" stroke-opacity="1" stroke-width="3.2"/>
<path clip-path="url(#clip370)" d="M1421.45 402 L1410.35 432.098 L1432.59 432.098 L1421.45 402 M1416.83 393.938 L1426.11 393.938 L1449.16 454.418 L1440.65 454.418 L1435.14 438.903 L1407.88 438.903 L1402.37 454.418 L1393.74 454.418 L1416.83 393.938 Z" fill="#000000" fill-rule="evenodd" fill-opacity="1" /><path clip-path="url(#clip370)" d="M1421.45 402 L1410.35 432.098 L1432.59 432.098 L1421.45 402 M1416.83 393.938 L1426.11 393.938 L1449.16 454.418 L1440.65 454.418 L1435.14 438.903 L1407.88 438.903 L1402.37 454.418 L1393.74 454.418 L1416.83 393.938 Z" fill="#000000" fill-rule="evenodd" fill-opacity="1" /><path clip-path="url(#clip370)" d="M894.183 939.537 L894.183 961.695 L907.308 961.695 Q913.911 961.695 917.07 958.981 Q920.27 956.227 920.27 950.596 Q920.27 944.925 917.07 942.251 Q913.911 939.537 907.308 939.537 L894.183 939.537 M894.183 914.664 L894.183 932.893 L906.295 932.893 Q912.29 932.893 915.207 930.665 Q918.164 928.397 918.164 923.779 Q918.164 919.201 915.207 916.933 Q912.29 914.664 906.295 914.664 L894.183 914.664 M886 907.94 L906.902 907.94 Q916.26 907.94 921.324 911.829 Q926.387 915.718 926.387 922.888 Q926.387 928.437 923.795 931.719 Q921.202 935 916.179 935.81 Q922.215 937.106 925.537 941.238 Q928.899 945.33 928.899 951.487 Q928.899 959.589 923.39 964.004 Q917.88 968.42 907.713 968.42 L886 968.42 L886 907.94 Z" fill="#000000" fill-rule="evenodd" fill-opacity="1" /></svg>
